<svg xmlns="http://www.w3.org/2000/svg" viewBox="0 0 42 42"><defs><style>.cls-1{fill:#3f3f3f;}</style></defs><title>robozilla</title><path class="cls-1" d="M9.41,24.12l-.79-.52A15.62,15.62,0,0,1,18.43,17a15.83,15.83,0,0,1,15.69,4.54l-.68.66a14.73,14.73,0,0,0-14.79-4.28A14.73,14.73,0,0,0,9.41,24.12Z"/><path class="cls-1" d="M13.87,29.13a3.3,3.3,0,0,1-3.21-2.54,3.25,3.25,0,0,1,.39-2.49A3.29,3.29,0,0,1,15.59,23a3.3,3.3,0,0,1-.95,6A3,3,0,0,1,13.87,29.13Zm0-5.66a2.57,2.57,0,0,0-.55.06,2.39,2.39,0,0,0-1.46,1.06,2.32,2.32,0,0,0-.28,1.78,2.36,2.36,0,1,0,4.58-1.1,2.33,2.33,0,0,0-1.06-1.45A2.36,2.36,0,0,0,13.87,23.47Z"/><path class="cls-1" d="M26.52,26.09A3.3,3.3,0,1,1,29.73,22h0a3.3,3.3,0,0,1-3.21,4.07Zm0-5.66a2.13,2.13,0,0,0-.55.07,2.33,2.33,0,1,0,.55-.07Z"/><path class="cls-1" d="M22,33.35l-.12-.93.18,0a1.9,1.9,0,0,0,1.41-2.29,1.91,1.91,0,0,0-2.29-1.4A1.89,1.89,0,0,0,19.8,30l-.9-.28A2.86,2.86,0,0,1,21,27.77a2.8,2.8,0,0,1,2.15.34,2.84,2.84,0,0,1-.83,5.19Z"/><polygon class="cls-1" points="23.78 5.66 22.78 7.28 26.3 8.22 27.18 6.73 23.78 5.66"/><polygon class="cls-1" points="23.36 8.33 23.17 10.1 26.09 10.22 26.22 8.46 23.36 8.33"/><polygon class="cls-1" points="24.03 11.79 25.82 13.81 30.9 10.1 29.34 8.45 24.03 11.79"/><polygon class="cls-1" points="27.49 5.81 27.69 7.24 28.86 7.18 28.84 5.82 27.49 5.81"/><polygon class="cls-1" points="29.29 5.82 29.23 7.19 30.51 7.2 30.5 5.92 29.29 5.82"/><polygon class="cls-1" points="32.5 5.7 32.77 7.55 38.71 7.37 38.41 5.73 32.5 5.7"/><polygon class="cls-1" points="32.4 7.91 37.86 7.65 39.9 9.85 37.98 13.9 35.46 12.5 36.77 10.11 32.75 10.35 32.4 7.91"/><path class="cls-1" d="M3.79,6.21l-1.7,7.15,7.57.11,1-7.16Zm3.63,4.7-2.48,0,.64-2.47,2.25,0Z"/><polygon class="cls-1" points="18.84 5.59 18.56 6.99 20.07 7.18 20.34 5.8 18.84 5.59"/><polygon class="cls-1" points="20.74 5.8 20.45 7.2 21.87 7.43 22.12 6.02 20.74 5.8"/><polygon class="cls-1" points="20.56 7.65 17.81 7.57 17.84 6.01 15.36 5.97 15.33 7.49 12.48 7.41 12.22 9.72 15.28 9.72 15.2 13.9 17.68 13.9 17.76 9.72 20.4 9.72 20.56 7.65"/><polygon class="cls-1" points="13.61 10.22 12.05 12.34 13.49 13.35 15 11.11 13.61 10.22"/><polygon class="cls-1" points="19.43 10.22 20.86 12.25 19.35 13.23 18.02 11.17 19.43 10.22"/><path class="cls-1" d="M0,0V42H42V0ZM41,1V21.1H34.09v4.62H32.27v8.09l-.14.12H31.08V28.82H28.8V27.09H26.43v8.49H23.51V34.3h-1.9V30.15H17.94v1.37h-1.8v.94H14v2.82h-1V29.59H10.56V27.1H9.07V24.17H5.35v3.59L1,27.74V1Z"/></svg>
