{
    "asset" : {
        "generator" : "Khronos glTF Blender I/O v0.9.36",
        "version" : "2.0"
    },
    "scene" : 0,
    "scenes" : [
        {
            "name" : "Scene",
            "nodes" : [
                0,
                1
            ]
        }
    ],
    "nodes" : [
        {
            "mesh" : 0,
            "name" : "body",
            "rotation" : [
                0.7071068286895752,
                0,
                0,
                0.7071067094802856
            ],
            "scale" : [
                56,
                56,
                56
            ],
            "translation" : [
                0,
                -60,
                6.199999809265137
            ]
        },
        {
            "mesh" : 1,
            "name" : "energy",
            "rotation" : [
                0.7071068286895752,
                0,
                0,
                0.7071067094802856
            ],
            "scale" : [
                56,
                56,
                56
            ],
            "translation" : [
                0,
                -60,
                6.199999809265137
            ]
        }
    ],
    "materials" : [
        {
            "emissiveFactor" : [
                1,
                1,
                1
            ],
            "emissiveTexture" : {
                "index" : 0,
                "texCoord" : 0
            },
            "name" : "body-mat",
            "pbrMetallicRoughness" : {}
        },
        {
            "name" : "energy-mat",
            "pbrMetallicRoughness" : {}
        }
    ],
    "meshes" : [
        {
            "name" : "robozilla-body",
            "primitives" : [
                {
                    "attributes" : {
                        "POSITION" : 0,
                        "TEXCOORD_0" : 1
                    },
                    "indices" : 2,
                    "material" : 0
                }
            ]
        },
        {
            "name" : "robozilla-parts",
            "primitives" : [
                {
                    "attributes" : {
                        "POSITION" : 3
                    },
                    "indices" : 4,
                    "material" : 1
                }
            ]
        }
    ],
    "textures" : [
        {
            "source" : 0
        }
    ],
    "images" : [
        {
            "mimeType" : "image/jpeg",
            "name" : "robozilla",
            "uri" : "robozilla.jpg"
        }
    ],
    "accessors" : [
        {
            "bufferView" : 0,
            "componentType" : 5126,
            "count" : 4478,
            "max" : [
                1.2029523849487305,
                0.41924813389778137,
                -0.0007780499872751534
            ],
            "min" : [
                -1.2029523849487305,
                -0.4538755714893341,
                -2.293704032897949
            ],
            "type" : "VEC3"
        },
        {
            "bufferView" : 1,
            "componentType" : 5126,
            "count" : 4478,
            "type" : "VEC2"
        },
        {
            "bufferView" : 2,
            "componentType" : 5123,
            "count" : 6714,
            "type" : "SCALAR"
        },
        {
            "bufferView" : 3,
            "componentType" : 5126,
            "count" : 1072,
            "max" : [
                0.23195646703243256,
                0.40394914150238037,
                -0.4751977026462555
            ],
            "min" : [
                -0.23195646703243256,
                -0.15481774508953094,
                -2.177823066711426
            ],
            "type" : "VEC3"
        },
        {
            "bufferView" : 4,
            "componentType" : 5123,
            "count" : 1608,
            "type" : "SCALAR"
        }
    ],
    "bufferViews" : [
        {
            "buffer" : 0,
            "byteLength" : 53736,
            "byteOffset" : 0
        },
        {
            "buffer" : 0,
            "byteLength" : 35824,
            "byteOffset" : 53736
        },
        {
            "buffer" : 0,
            "byteLength" : 13428,
            "byteOffset" : 89560
        },
        {
            "buffer" : 0,
            "byteLength" : 12864,
            "byteOffset" : 102988
        },
        {
            "buffer" : 0,
            "byteLength" : 3216,
            "byteOffset" : 115852
        }
    ],
    "buffers" : [
        {
            "byteLength" : 119068,
            "uri" : "robozilla.bin"
        }
    ]
}
